Coordinates
version=1
nRows=12
nColumns=46
inDegrees=yes

Units are S.I. units (second, meters, Newtons, ...)
Angles are in degrees.

endheader
time	pelvis_tilt	pelvis_list	pelvis_rotation	pelvis_tx	pelvis_ty	pelvis_tz	bb_angle	bb_tx	bb_ty	bb_tz	hip_flexion_r	hip_adduction_r	hip_rotation_r	knee_angle_r	knee_angle_r_beta	ankle_angle_r	subtalar_angle_r	mtp_angle_r	crank_angle_r	hip_flexion_l	hip_adduction_l	hip_rotation_l	knee_angle_l	knee_angle_l_beta	ankle_angle_l	subtalar_angle_l	mtp_angle_l	crank_angle_l	lumbar_extension	lumbar_bending	lumbar_rotation	arm_flex_r	arm_add_r	arm_rot_r	elbow_flex_r	pro_sup_r	wrist_flex_r	wrist_dev_r	arm_flex_l	arm_add_l	arm_rot_l	elbow_flex_l	pro_sup_l	wrist_flex_l	wrist_dev_l
      7.50000000	    -14.90408309	     -4.67442164	     -2.37178478	      0.16480235	      1.15823968	     -0.26039469	      0.00000000	      0.50000000	      0.00000000	      0.25000000	     93.49585230	     -3.24687680	     -3.58730082	    111.01016190	      1.93749283	    -17.38399689	    -13.35688592	      0.00000000	      0.00000000	     35.11544323	    -10.37400838	     -5.57460101	     35.45145767	      0.61874466	      8.02010117	      1.87181176	      0.00000000	      0.00000000	    -68.40825605	      5.26791154	      8.17118177	     89.74342075	     -6.63241036	     22.55980792	     63.57843188	     29.77683819	      0.00000000	      0.00000000	     85.00863826	     -8.53732559	      9.27804428	     61.18589675	     37.15686374	      0.00000000	      0.00000000
      7.50500000	    -15.10215174	     -4.59380194	     -2.67656093	      0.16432569	      1.15982371	     -0.26054606	      0.00000000	      0.50000000	      0.00000000	      0.25000000	     93.84474375	     -3.08121294	     -3.67656161	    110.12602032	      1.92206165	    -16.71022995	    -13.23898366	      0.00000000	      0.00000000	     35.39080474	    -10.64569088	     -6.12686993	     36.70685234	      0.64065543	      7.47805127	      1.72521389	      0.00000000	      0.00000000	    -68.38498176	      5.06311479	      8.15983122	     89.75488290	     -6.63520655	     22.62975643	     63.68622340	     29.75754259	      0.00000000	      0.00000000	     85.28376430	     -8.75629940	      9.42161513	     61.03399181	     37.17383548	      0.00000000	      0.00000000
      7.51000000	    -15.60830310	     -4.77192775	     -2.99807224	      0.16365177	      1.16048258	     -0.26055349	      0.00000000	      0.50000000	      0.00000000	      0.25000000	     94.34113384	     -2.75869517	     -3.92295774	    109.08337427	      1.90386404	    -15.55297419	    -12.32770327	      0.00000000	      0.00000000	     36.29031716	    -11.25782106	     -6.52530424	     38.49118199	      0.67179786	      7.51256620	      2.04061920	      0.00000000	      0.00000000	    -67.99585806	      5.07923246	      8.52359737	     89.76313839	     -6.74047003	     22.95926479	     63.82307447	     29.57696385	      0.00000000	      0.00000000	     85.47646031	     -9.28499781	     10.38861273	     60.44795723	     37.31980895	      0.00000000	      0.00000000
      7.51500000	    -15.91244350	     -4.65775378	     -3.32807614	      0.16289894	      1.16176433	     -0.26060174	      0.00000000	      0.50000000	      0.00000000	      0.25000000	     94.55433422	     -2.43136218	     -3.89422926	    107.91442932	      1.88346210	    -14.79120166	    -12.14946457	      0.00000000	      0.00000000	     36.93072264	    -11.51057326	     -6.95740105	     40.14138468	      0.70059933	      7.00768201	      1.51603386	      0.00000000	      0.00000000	    -67.89253322	      4.81718301	      8.46695935	     89.77349200	     -6.70226606	     22.99191661	     64.00912961	     29.55531495	      0.00000000	      0.00000000	     85.78080586	     -9.54196737	     10.48477989	     60.35358810	     37.34858221	      0.00000000	      0.00000000
      7.52000000	    -16.50850932	     -4.78652075	     -3.61133630	      0.16201920	      1.16230223	     -0.26061874	      0.00000000	      0.50000000	      0.00000000	      0.25000000	     94.86296596	     -2.05885911	     -4.03977242	    106.59932754	      1.86050925	    -13.48143908	    -11.34729568	      0.00000000	      0.00000000	     38.13250621	    -11.97054248	     -6.99143448	     42.14661413	      0.73559719	      6.70946407	      1.08591900	      0.00000000	      0.00000000	    -67.51488933	      4.82646660	      8.67089928	     89.77903585	     -6.62323325	     23.08297585	     64.30630888	     29.47804153	      0.00000000	      0.00000000	     85.87096389	    -10.01369740	     10.91837510	     60.16314206	     37.44127886	      0.00000000	      0.00000000
      7.52500000	    -16.92331058	     -4.79435270	     -3.85867987	      0.16120118	      1.16309581	     -0.26061135	      0.00000000	      0.50000000	      0.00000000	      0.25000000	     94.87048125	     -1.68142354	     -4.01147124	    105.22949082	      1.83660108	    -11.99916902	    -10.54696568	      0.00000000	      0.00000000	     39.20136023	    -12.30961226	     -7.05269890	     44.24047722	      0.77214199	      6.32911567	      0.67171479	      0.00000000	      0.00000000	    -67.30710524	      4.71681962	      8.72767942	     89.78727630	     -6.65381982	     23.24434785	     64.53827352	     29.17463065	      0.00000000	      0.00000000	     86.16628952	    -10.96738266	     11.95344296	     60.14294975	     37.75171661	      0.00000000	      0.00000000
      7.53000000	    -17.23042993	     -4.68839179	     -4.07202411	      0.16038425	      1.16411410	     -0.26047004	      0.00000000	      0.50000000	      0.00000000	      0.25000000	     94.64232559	     -1.30675027	     -3.92025092	    103.75087122	      1.81079430	    -10.69857621	    -10.36174157	      0.00000000	      0.00000000	     40.19080520	    -12.50045574	     -7.04525307	     46.33062852	      0.80862201	      5.79626065	      0.00708640	      0.00000000	      0.00000000	    -67.25516012	      4.48825713	      8.56722620	     89.79518765	     -6.57824646	     23.22516596	     64.78770490	     29.13280490	      0.00000000	      0.00000000	     86.45837648	    -11.31335674	     12.01894574	     60.15994649	     37.80990863	      0.00000000	      0.00000000
      7.53500000	    -17.68276784	     -4.73281829	     -4.26793011	      0.15956702	      1.16467351	     -0.26041657	      0.00000000	      0.50000000	      0.00000000	      0.25000000	     94.38515517	     -0.97057196	     -3.96158860	    102.13217202	      1.78254267	     -9.11433192	     -9.63227218	      0.00000000	      0.00000000	     41.49772007	    -12.80543744	     -6.81660526	     48.62636571	      0.84869018	      5.31757364	     -0.61923049	      0.00000000	      0.00000000	    -67.04059056	      4.43873882	      8.54716001	     89.79978468	     -6.43790863	     23.22675657	     65.11003021	     29.06005070	      0.00000000	      0.00000000	     86.54936691	    -11.81292785	     12.30039197	     60.28922432	     37.93202741	      0.00000000	      0.00000000
      7.54000000	    -18.03321343	     -4.62754852	     -4.37294096	      0.15889808	      1.16524651	     -0.26054503	      0.00000000	      0.50000000	      0.00000000	      0.25000000	     93.93347290	     -0.76506073	     -3.79977246	    100.48750514	      1.75383782	     -7.27018323	     -8.70883914	      0.00000000	      0.00000000	     42.72119363	    -12.86446940	     -6.48359741	     50.92344351	      0.88878176	      4.84911081	     -1.22276427	      0.00000000	      0.00000000	    -66.95321511	      4.39957821	      8.22687752	     89.80470872	     -6.13723511	     23.31945553	     65.42656585	     28.47876229	      0.00000000	      0.00000000	     86.50930261	    -13.08967308	     13.16617781	     61.10416526	     38.51575869	      0.00000000	      0.00000000
      7.54500000	    -18.32645241	     -4.57560629	     -4.57319599	      0.15832159	      1.16585027	     -0.26032059	      0.00000000	      0.50000000	      0.00000000	      0.25000000	     93.30391096	     -0.39591326	     -3.71727991	     98.70592310	      1.72274335	     -5.78056590	     -8.31636127	      0.00000000	      0.00000000	     43.91130108	    -13.06435376	     -6.19477803	     53.27667825	      0.92985345	      4.39776677	     -1.84239670	      0.00000000	      0.00000000	    -66.89387126	      4.21645458	      8.09695271	     89.80968791	     -6.06912766	     23.32980277	     65.69876613	     28.41683876	      0.00000000	      0.00000000	     86.75562634	    -13.52881476	     13.21115009	     61.18690935	     38.59388857	      0.00000000	      0.00000000
      7.55000000	    -18.64038949	     -4.50074325	     -4.49672744	      0.15758691	      1.16596451	     -0.26038871	      0.00000000	      0.50000000	      0.00000000	      0.25000000	     92.63734234	     -0.32000039	     -3.57661017	     96.95081976	      1.69211102	     -3.94660836	     -7.48658838	      0.00000000	      0.00000000	     45.28394336	    -12.98797666	     -5.53021754	     55.72346602	      0.97255795	      3.96388888	     -2.37940358	      0.00000000	      0.00000000	    -66.80697625	      4.30303367	      7.77384384	     89.81348919	     -5.91372005	     23.37220708	     66.05197912	     28.25345014	      0.00000000	      0.00000000	     86.72732799	    -14.33585442	     13.56283158	     61.70204827	     38.85965558	      0.00000000	      0.00000000
      7.55500000	    -18.87334272	     -4.45952525	     -4.53065196	      0.15701814	      1.16616360	     -0.26052973	      0.00000000	      0.50000000	      0.00000000	      0.25000000	     91.77072238	     -0.12572015	     -3.41989769	     95.09211112	      1.65967043	     -2.15188010	     -6.65348541	      0.00000000	      0.00000000	     46.53858541	    -12.99076654	     -4.97829077	     58.14695606	      1.01485583	      3.61967376	     -2.99927530	      0.00000000	      0.00000000	    -66.79186859	      4.29011924	      7.51498824	     89.81652993	     -5.75425603	     23.42394669	     66.36765534	     28.02035530	      0.00000000	      0.00000000	     86.77955072	    -15.18566000	     13.90539760	     62.28789475	     39.15461939	      0.00000000	      0.00000000
